<svg width="31" height="24" viewBox="0 0 31 24" fill="none" xmlns="http://www.w3.org/2000/svg">
<g clip-path="url(#clip0_59_552)">
<path d="M19.869 0.0720721C19.7481 0.288289 19.6213 0.534533 19.4883 0.810811C19.3554 1.08709 19.2285 1.36937 19.1076 1.65766L19.0713 1.76577C18.5396 1.66967 17.9715 1.5976 17.3673 1.54955C16.763 1.5015 16.1466 1.47748 15.5181 1.47748C14.8897 1.47748 14.2673 1.5015 13.6509 1.54955C13.0345 1.5976 12.4363 1.66967 11.8561 1.76577H11.9649C11.8441 1.42943 11.7111 1.11712 11.5661 0.828829C11.4211 0.540539 11.276 0.264266 11.131 0L11.1673 0.0720721C9.95867 0.264265 8.81658 0.534533 7.74094 0.882883C6.6653 1.23123 5.61989 1.64564 4.60468 2.12613L4.74971 2.05405C4.02456 3.11112 3.35985 4.22822 2.75556 5.40541C2.17544 6.60661 1.67992 7.84384 1.26901 9.11712C0.858088 10.3904 0.543861 11.7117 0.326316 13.0811C0.108771 14.4264 0 15.8078 0 17.2252C0 17.7057 0.0120862 18.1742 0.0362573 18.6306C0.0604285 19.0871 0.0966858 19.5435 0.145029 20L0.108772 19.8919C1.24484 20.7327 2.45945 21.4835 3.75263 22.1441C5.04582 22.8048 6.39337 23.3634 7.79532 23.8198L7.97661 23.8559C8.26667 23.4715 8.55068 23.0631 8.82866 22.6306C9.10663 22.1982 9.37856 21.7538 9.64444 21.2973L9.6807 21.1892C9.1731 20.997 8.69571 20.7928 8.24854 20.5766C7.80136 20.3604 7.37232 20.1321 6.9614 19.8919L7.03392 19.9279C7.15478 19.8318 7.26959 19.7417 7.37836 19.6577C7.48713 19.5736 7.58986 19.4835 7.68655 19.3874V19.4234C8.82262 19.976 10.0554 20.4084 11.3848 20.7207C12.7142 21.033 14.092 21.1892 15.5181 21.1892C16.9443 21.1892 18.322 21.033 19.6515 20.7207C20.9809 20.4084 22.2499 19.952 23.4585 19.3514L23.3497 19.4234C23.5673 19.5916 23.7848 19.7598 24.0023 19.9279C23.6156 20.1441 23.2107 20.3604 22.7877 20.5766C22.3647 20.7928 21.9236 20.985 21.4643 21.1532L21.3556 21.1892C21.6214 21.7177 21.8934 22.2102 22.1713 22.6667C22.4493 23.1231 22.7454 23.5676 23.0597 24L23.0234 23.9279C24.522 23.4715 25.924 22.9069 27.2292 22.2342C28.5345 21.5616 29.7672 20.7928 30.9275 19.9279L30.855 19.964C30.9033 19.5556 30.9396 19.1231 30.9637 18.6667C30.9879 18.2102 31 17.7417 31 17.2613C31 15.8438 30.8912 14.4625 30.6737 13.1171C30.4561 11.7477 30.1359 10.4264 29.7129 9.15315C29.2899 7.87987 28.7883 6.64265 28.2082 5.44144C27.6039 4.26426 26.915 3.13514 26.1415 2.05405L26.214 2.12613C25.2955 1.66967 24.3166 1.26727 23.2772 0.918919C22.2378 0.570569 21.1622 0.288289 20.0503 0.0720721H19.869ZM10.3696 16.2883C9.5961 16.2402 8.94347 15.9279 8.4117 15.3514C7.87992 14.7748 7.61404 14.0901 7.61404 13.2973C7.61404 13.2973 7.61404 13.2853 7.61404 13.2613C7.61404 13.2372 7.61404 13.2132 7.61404 13.1892V13.2252C7.61404 13.2012 7.60799 13.1772 7.59591 13.1532C7.58382 13.1291 7.57778 13.1051 7.57778 13.0811C7.57778 12.3123 7.84971 11.6396 8.39357 11.0631C8.93743 10.4865 9.5961 10.1742 10.3696 10.1261C11.1673 10.1742 11.832 10.4865 12.3637 11.0631C12.8955 11.6396 13.1614 12.3123 13.1614 13.0811C13.1614 13.1051 13.1614 13.1291 13.1614 13.1532C13.1614 13.1772 13.1614 13.2012 13.1614 13.2252C13.1614 13.2252 13.1614 13.2372 13.1614 13.2613C13.1614 13.2853 13.1614 13.3093 13.1614 13.3333C13.1614 14.1021 12.8955 14.7748 12.3637 15.3514C11.832 15.9279 11.1793 16.2402 10.4058 16.2883H10.3696ZM20.6667 16.2883C19.869 16.2402 19.2043 15.9279 18.6725 15.3514C18.1407 14.7748 17.8749 14.0901 17.8749 13.2973C17.8749 13.2973 17.8749 13.2853 17.8749 13.2613C17.8749 13.2372 17.8749 13.2132 17.8749 13.1892V13.2252C17.8749 13.2012 17.8749 13.1772 17.8749 13.1532C17.8749 13.1291 17.8749 13.1051 17.8749 13.0811C17.8749 12.3123 18.1407 11.6396 18.6725 11.0631C19.2043 10.4865 19.8569 10.1742 20.6304 10.1261H20.6667C21.4402 10.1742 22.0988 10.4805 22.6427 11.045C23.1866 11.6096 23.4585 12.2883 23.4585 13.0811C23.4585 13.1051 23.4524 13.1291 23.4404 13.1532C23.4283 13.1772 23.4222 13.2012 23.4222 13.2252C23.4222 13.2252 23.4283 13.2372 23.4404 13.2613C23.4524 13.2853 23.4585 13.3093 23.4585 13.3333C23.4585 14.1261 23.1866 14.8048 22.6427 15.3694C22.0988 15.9339 21.4402 16.2402 20.6667 16.2883Z" fill="#F9F5E6"/>
</g>
<defs>
<clipPath id="clip0_59_552">
<rect width="31" height="24" fill="white"/>
</clipPath>
</defs>
</svg>
