<svg width="12" height="24" viewBox="0 0 12 24" fill="none" xmlns="http://www.w3.org/2000/svg">
<g clip-path="url(#clip0_59_554)">
<path d="M7.80905 24V13.0625H11.3668L11.8794 8.78125H7.80905V6.0625C7.80905 5.4375 7.93467 4.93229 8.18593 4.54688C8.43719 4.16146 8.98492 3.96875 9.82915 3.96875H12V0.15625C11.5377 0.114583 11.0452 0.078125 10.5226 0.046875C10 0.015625 9.47739 0 8.95477 0C8.93467 0 8.91457 0 8.89447 0C8.87437 0 8.85427 0 8.83417 0C7.26632 0 5.98995 0.48437 5.00503 1.45312C4.0201 2.42188 3.52764 3.82291 3.52764 5.65625V8.78125H0V13.0625H3.52764V24H7.80905Z" fill="#F9F5E6"/>
</g>
<defs>
<clipPath id="clip0_59_554">
<rect width="12" height="24" fill="white"/>
</clipPath>
</defs>
</svg>
