<svg width="24" height="24" viewBox="0 0 24 24" fill="none" xmlns="http://www.w3.org/2000/svg">
<g clip-path="url(#clip0_59_558)">
<path d="M12 5.82857C11.1458 5.82857 10.3438 5.98441 9.59375 6.2961C8.84375 6.62857 8.19271 7.07013 7.64062 7.62078C7.08854 8.17143 6.64583 8.82078 6.3125 9.56883C6 10.3169 5.84375 11.1169 5.84375 11.9688C5.84375 12.8208 6 13.6208 6.3125 14.3688C6.64583 15.1169 7.08854 15.7662 7.64062 16.3169C8.19271 16.8675 8.84375 17.3091 9.59375 17.6416C10.3438 17.9532 11.1458 18.1091 12 18.1091C12.8542 18.1091 13.6562 17.9532 14.4062 17.6416C15.1563 17.3091 15.8073 16.8675 16.3594 16.3169C16.9115 15.7662 17.3542 15.1169 17.6875 14.3688C18 13.6208 18.1562 12.8208 18.1562 11.9688C18.1562 11.1169 18 10.3169 17.6875 9.56883C17.3542 8.82078 16.9115 8.17143 16.3594 7.62078C15.8073 7.07013 15.1563 6.62857 14.4062 6.2961C13.6562 5.98441 12.8542 5.82857 12 5.82857ZM12 15.9584C10.8958 15.9584 9.95313 15.5688 9.17188 14.7896C8.39062 14.0104 8 13.0701 8 11.9688C8 10.8675 8.39062 9.92728 9.17188 9.14805C9.95313 8.36883 10.8958 7.97922 12 7.97922C13.1042 7.97922 14.0469 8.36883 14.8281 9.14805C15.6094 9.92728 16 10.8675 16 11.9688C16 13.0701 15.6094 14.0104 14.8281 14.7896C14.0469 15.5688 13.1042 15.9584 12 15.9584ZM19.8438 5.57922C19.8438 5.99481 19.7031 6.33766 19.4219 6.60779C19.1406 6.87792 18.8021 7.01299 18.4062 7.01299C18.0104 7.01299 17.6719 6.87792 17.3906 6.60779C17.1094 6.33766 16.9688 5.99481 16.9688 5.57922C16.9688 5.18441 17.1094 4.85195 17.3906 4.58182C17.6719 4.31169 18.0104 4.17662 18.4062 4.17662C18.8021 4.17662 19.1406 4.31169 19.4219 4.58182C19.7031 4.85195 19.8438 5.18441 19.8438 5.57922ZM23.375 4.14545C23.0625 3.33506 22.6042 2.62857 22 2.02597C21.3958 1.42337 20.6979 0.966236 19.9062 0.654545L19.875 0.623377C19.4375 0.457143 18.974 0.327273 18.4844 0.233766C17.9948 0.14026 17.4896 0.0935065 16.9688 0.0935065H16.9375C16.3125 0.0519477 15.7396 0.0259744 15.2188 0.0155844C14.6979 0.00519447 13.625 0 12 0C10.375 0 9.30209 0.00519447 8.78125 0.0155844C8.26041 0.0259744 7.6875 0.0519477 7.0625 0.0935065C6.54166 0.0935065 6.03125 0.145454 5.53125 0.249351C5.03125 0.353247 4.55209 0.488311 4.09375 0.654545L4.15625 0.623377C3.34375 0.955846 2.63542 1.42337 2.03125 2.02597C1.42708 2.62857 0.968752 3.31428 0.65625 4.08312L0.625 4.14545C0.458333 4.56104 0.328125 5.01818 0.234375 5.51688C0.140625 6.01559 0.083333 6.52467 0.0625 7.04416C0.041667 7.68832 0.026042 8.26493 0.015625 8.77403C0.005208 9.28312 0 10.348 0 11.9688C0 13.5896 0.005208 14.6597 0.015625 15.1792C0.026042 15.6987 0.041667 16.2805 0.0625 16.9247C0.083333 17.4234 0.140625 17.9117 0.234375 18.3896C0.328125 18.8675 0.458333 19.3455 0.625 19.8234C0.958335 20.6338 1.42708 21.3403 2.03125 21.9429C2.63542 22.5455 3.32291 23.0026 4.09375 23.3143H4.15625C4.57292 23.5013 5.02604 23.6468 5.51562 23.7507C6.00521 23.8545 6.51041 23.9065 7.03125 23.9065H7.0625C7.70834 23.9481 8.28646 23.974 8.79688 23.9844C9.30729 23.9948 10.375 24 12 24C13.625 24 14.6979 23.9948 15.2188 23.9844C15.7396 23.974 16.3229 23.9481 16.9688 23.9065C17.4896 23.9065 18 23.8545 18.5 23.7507C19 23.6468 19.4792 23.5117 19.9375 23.3455L19.875 23.3766C20.6875 23.0442 21.3958 22.5766 22 21.974C22.6042 21.3714 23.0625 20.6857 23.375 19.9169V19.8545C23.5625 19.3974 23.7031 18.9247 23.7969 18.4364C23.8906 17.948 23.9375 17.4545 23.9375 16.9558C23.9583 16.3117 23.974 15.7351 23.9844 15.226C23.9948 14.7169 24 13.652 24 12.0312C24 10.3896 24 9.31429 24 8.80519C24 8.2961 23.9792 7.71948 23.9375 7.07532C23.9375 6.55584 23.8854 6.04156 23.7812 5.53247C23.6771 5.02337 23.5313 4.54026 23.3438 4.08312L23.375 4.14545ZM21.75 16.8C21.75 17.2156 21.7135 17.6156 21.6406 18C21.5677 18.3844 21.4583 18.7532 21.3125 19.1065L21.3438 19.0442C21.1354 19.5844 20.8333 20.0468 20.4375 20.4312C20.0417 20.8156 19.5938 21.1117 19.0938 21.3195H19.0625C18.7292 21.4649 18.375 21.5688 18 21.6312C17.625 21.6935 17.2396 21.7351 16.8438 21.7558C16.1979 21.7766 15.6302 21.7922 15.1406 21.8026C14.651 21.813 13.5938 21.8182 11.9688 21.8182C10.3437 21.8182 9.28646 21.813 8.79688 21.8026C8.30729 21.7922 7.73959 21.7766 7.09375 21.7558C6.67708 21.7351 6.28125 21.6883 5.90625 21.6156C5.53125 21.5429 5.16667 21.4442 4.8125 21.3195H4.84375C4.32291 21.1325 3.86458 20.8416 3.46875 20.4468C3.07292 20.0519 2.77083 19.5948 2.5625 19.0753V19.0442C2.4375 18.7325 2.33854 18.3896 2.26562 18.0156C2.19271 17.6416 2.15625 17.2468 2.15625 16.8312C2.11458 16.2078 2.09375 15.6468 2.09375 15.1481C2.09375 14.6493 2.09375 13.5896 2.09375 11.9688C2.09375 10.348 2.09375 9.29351 2.09375 8.80519C2.09375 8.31688 2.11458 7.75065 2.15625 7.10649C2.15625 6.71169 2.19271 6.32208 2.26562 5.93766C2.33854 5.55324 2.44792 5.18442 2.59375 4.83117L2.5625 4.86234C2.77083 4.34285 3.07292 3.88572 3.46875 3.49091C3.86458 3.0961 4.32291 2.79481 4.84375 2.58701C5.17708 2.46234 5.53125 2.36364 5.90625 2.29091C6.28125 2.21818 6.67708 2.18182 7.09375 2.18182C7.71875 2.16104 8.28125 2.14545 8.78125 2.13506C9.28125 2.12468 10.3437 2.11948 11.9688 2.11948C13.5938 2.11948 14.651 2.11948 15.1406 2.11948C15.6302 2.11948 16.1979 2.14026 16.8438 2.18182C17.2396 2.18182 17.625 2.21818 18 2.29091C18.375 2.36364 18.7396 2.47273 19.0938 2.61818L19.0625 2.58701C19.5833 2.79481 20.0417 3.0961 20.4375 3.49091C20.8333 3.88572 21.1354 4.34285 21.3438 4.86234C21.4688 5.19481 21.5677 5.54805 21.6406 5.92208C21.7135 6.29611 21.75 6.68052 21.75 7.07532V7.10649C21.7708 7.72987 21.7865 8.29091 21.7969 8.78961C21.8073 9.28831 21.8125 10.348 21.8125 11.9688C21.8125 13.5896 21.8125 14.6442 21.8125 15.1325C21.8125 15.6208 21.8021 16.1766 21.7812 16.8H21.75Z" fill="#F9F5E6"/>
</g>
<defs>
<clipPath id="clip0_59_558">
<rect width="24" height="24" fill="white"/>
</clipPath>
</defs>
</svg>
