<svg width="24" height="24" viewBox="0 0 24 24" fill="none" xmlns="http://www.w3.org/2000/svg">
<g clip-path="url(#clip0_59_556)">
<path d="M11.9859 0C10.354 0 8.80657 0.318871 7.34349 0.956624C5.88041 1.57562 4.60493 2.42907 3.517 3.517C2.42907 4.60493 1.57562 5.88041 0.956624 7.34349C0.318871 8.80657 0 10.354 0 11.9859C0 13.6366 0.318871 15.1934 0.956624 16.6565C1.57562 18.1196 2.42907 19.3904 3.517 20.4689C4.60493 21.5475 5.88041 22.4056 7.34349 23.0434C8.80657 23.6811 10.354 24 11.9859 24C13.6366 24 15.1934 23.6811 16.6565 23.0434C18.1196 22.4056 19.3904 21.5475 20.4689 20.4689C21.5475 19.3904 22.4056 18.1196 23.0434 16.6565C23.6811 15.1934 24 13.6366 24 11.9859C24 10.354 23.6811 8.80657 23.0434 7.34349C22.4244 5.88041 21.5756 4.60493 20.4971 3.517C19.4185 2.42907 18.1477 1.57562 16.6846 0.956624C15.2216 0.318871 13.6553 0 11.9859 0ZM17.5006 17.3318C17.388 17.5193 17.238 17.6366 17.0504 17.6835C16.8628 17.7304 16.6753 17.6975 16.4877 17.585C15.7937 17.1348 15.0434 16.7784 14.2368 16.5158C13.449 16.2532 12.6143 16.075 11.7327 15.9812C10.8511 15.8875 9.93201 15.8781 8.97538 15.9531C7.99999 16.0281 6.98711 16.1876 5.93669 16.4314C5.73036 16.4877 5.54279 16.4596 5.37397 16.347C5.20516 16.2345 5.09261 16.0844 5.03634 15.8968C4.98007 15.6905 5.0129 15.5029 5.13482 15.3341C5.25674 15.1653 5.40211 15.0528 5.57093 14.9965C6.71513 14.7339 7.8218 14.5651 8.89097 14.49C9.94139 14.415 10.9543 14.4338 11.9297 14.5463C12.905 14.6589 13.8335 14.8652 14.7151 15.1653C15.5967 15.4467 16.4314 15.8312 17.2192 16.3189C17.4256 16.4127 17.5475 16.558 17.585 16.755C17.6225 16.9519 17.5944 17.1442 17.5006 17.3318ZM18.9637 14.0399C18.8136 14.2462 18.6166 14.3822 18.3728 14.4478C18.129 14.5135 17.9039 14.4713 17.6975 14.3212C16.891 13.8335 15.9906 13.4302 14.9965 13.1114C14.0023 12.7925 12.9801 12.5721 11.9297 12.4502C10.8792 12.3283 9.81947 12.3048 8.75029 12.3798C7.69988 12.4736 6.70575 12.6706 5.76788 12.9707C5.52403 13.027 5.28488 12.9988 5.05041 12.8863C4.81594 12.7737 4.67057 12.5955 4.6143 12.3517C4.55803 12.1079 4.58617 11.8734 4.69871 11.6483C4.81126 11.4232 4.98945 11.2825 5.23329 11.2263C6.32122 10.8886 7.46541 10.6729 8.66588 10.5791C9.8476 10.5041 11.0293 10.5369 12.211 10.6776C13.3927 10.8183 14.5369 11.0762 15.6436 11.4513C16.7691 11.8077 17.7913 12.2673 18.7104 12.83C18.898 12.9238 19.0246 13.0973 19.0903 13.3505C19.1559 13.6038 19.1137 13.8335 18.9637 14.0399ZM19.0762 10.6635C18.1196 10.1008 17.0223 9.66002 15.7843 9.34115C14.5651 9.02227 13.3224 8.81126 12.0563 8.70809C10.7901 8.60492 9.54749 8.60961 8.32825 8.72216C7.12778 8.81594 6.068 9.01289 5.14889 9.31301C5.11137 9.31301 5.06448 9.3177 5.00821 9.32708C4.95193 9.33646 4.89566 9.34115 4.83939 9.34115C4.59554 9.34115 4.37984 9.27081 4.19226 9.13013C4.00469 8.98945 3.87339 8.80657 3.79836 8.58148H3.77022C3.77022 8.52521 3.76553 8.47362 3.75615 8.42673C3.74678 8.37984 3.74209 8.32825 3.74209 8.27198C3.74209 8.02813 3.81243 7.80774 3.95311 7.61079C4.09379 7.41383 4.27667 7.27784 4.50176 7.20281C5.57093 6.88394 6.78077 6.66823 8.1313 6.55569C9.48184 6.42438 10.8699 6.41969 12.2954 6.54162C13.721 6.66354 15.1184 6.91207 16.4877 7.28722C17.857 7.64361 19.095 8.15006 20.2016 8.80657C20.483 8.95662 20.6612 9.19109 20.7362 9.50996C20.8113 9.82884 20.7737 10.1196 20.6237 10.3822C20.4736 10.5885 20.2438 10.7245 19.9343 10.7902C19.6249 10.8558 19.3388 10.8136 19.0762 10.6635Z" fill="#F9F5E6"/>
</g>
<defs>
<clipPath id="clip0_59_556">
<rect width="24" height="24" fill="white"/>
</clipPath>
</defs>
</svg>
