<svg width="21" height="24" viewBox="0 0 21 24" fill="none" xmlns="http://www.w3.org/2000/svg">
<g clip-path="url(#clip0_59_560)">
<path d="M19.7581 5.6272C18.5349 5.36459 17.5047 4.76905 16.6673 3.84056C15.83 2.91207 15.3454 1.81947 15.2137 0.56272V0.534584V0H11.0645V16.4314C11.0645 17.388 10.7258 18.204 10.0484 18.8792C9.37096 19.5545 8.54302 19.8921 7.56452 19.8921C7 19.8921 6.47783 19.7655 5.99798 19.5123C5.51814 19.2591 5.11828 18.9261 4.79839 18.5135C4.57258 18.2134 4.39852 17.8851 4.27621 17.5287C4.1539 17.1723 4.09274 16.7972 4.09274 16.4033C4.09274 15.4467 4.43145 14.6307 5.10887 13.9555C5.78629 13.2802 6.60483 12.9426 7.56452 12.9426C7.56452 12.9426 7.57393 12.9426 7.59274 12.9426H7.56452C7.58333 12.9426 7.59274 12.9426 7.59274 12.9426C7.78091 12.9426 7.96438 12.9566 8.14314 12.9848C8.32191 13.0129 8.49597 13.0551 8.66532 13.1114L8.6371 13.0832V8.89097C8.48656 8.87222 8.32661 8.85815 8.15726 8.84877C7.9879 8.83939 7.80914 8.8347 7.62097 8.8347C7.58333 8.8347 7.5504 8.8347 7.52218 8.8347C7.49395 8.8347 7.46102 8.8347 7.42339 8.8347C6.40725 8.85346 5.44759 9.06917 4.54435 9.48183C3.64112 9.89449 2.85551 10.4431 2.1875 11.1278C1.51949 11.8124 0.987905 12.6049 0.592742 13.5053C0.197579 14.4244 0 15.3998 0 16.4314C0 17.4631 0.197579 18.4338 0.592742 19.3435C0.987905 20.2532 1.51478 21.0551 2.17339 21.7491C2.86963 22.4431 3.68817 22.9918 4.62903 23.3951C5.5699 23.7984 6.5672 24 7.62097 24C8.67474 24 9.66263 23.803 10.5847 23.4091C11.5255 23.0152 12.3394 22.476 13.0262 21.7913C13.713 21.1067 14.254 20.3048 14.6492 19.3857C15.0632 18.4666 15.2702 17.4818 15.2702 16.4314V8.01876C16.0605 8.58148 16.9402 9.02696 17.9093 9.35522C18.8784 9.68347 19.8992 9.8476 20.9718 9.8476C20.9718 9.8476 20.9765 9.8476 20.9859 9.8476C20.9953 9.8476 21 9.8476 21 9.8476V5.76788C21 5.76788 20.9906 5.76788 20.9718 5.76788C20.7648 5.76788 20.5625 5.75381 20.3649 5.72567C20.1673 5.69754 19.9651 5.66471 19.7581 5.6272Z" fill="#F9F5E6"/>
</g>
<defs>
<clipPath id="clip0_59_560">
<rect width="21" height="24" fill="white"/>
</clipPath>
</defs>
</svg>
